<svg width="130" height="42" fill="none" xmlns="http://www.w3.org/2000/svg"><path d="M36.177 41.806a.658.658 0 01-.934-.003l-20.098-20.28c-2.156-2.166-5.667-2.173-7.82-.007l-3.862-3.879c4.282-4.302 11.257-4.297 15.546.012l20.144 20.325a.608.608 0 01-.003.857l-2.973 2.975z" fill="#6C54A3"/><path d="M31.719 5.9l-3.563 3.577-.327.33c-5.684-5.71-14.93-5.71-20.614 0-.47.47-.9.966-1.292 1.482l-.058.079-.007.007a.536.536 0 01-.769.113c-.016-.012-.03-.027-.047-.043L1.899 8.29l-.045-.046s-.003-.002-.003-.005a.543.543 0 01-.012-.669 25.58 25.58 0 01.299-.37 19.57 19.57 0 011.187-1.302c7.83-7.864 20.566-7.864 28.394.002z" fill="#ED1F7B"/><path d="M37.598 20.16c0 5.39-2.09 10.454-5.882 14.261a19.965 19.965 0 01-14.195 5.897 19.967 19.967 0 01-14.197-5.897l3.888-3.906c5.684 5.71 14.933 5.71 20.614 0a14.583 14.583 0 004.27-10.354c0-3.91-1.517-7.589-4.27-10.355l3.89-3.908c3.795 3.81 5.882 8.877 5.882 14.263z" fill="#F57F29"/><path d="M3.475 34.505c-4.633-4.654-4.633-12.226 0-16.88l3.861 3.88c-2.503 2.514-2.503 6.607 0 9.123l-3.861 3.877z" fill="#15BEF0"/><path d="M54.045 21.466c0 5.712 3.902 8.884 7.656 8.884 2.713 0 5.5-1.492 7.098-4.554.073-.187.296-.261.446-.148l3.42 2.202c.112.074.186.261.112.374-2.266 4.667-6.577 6.869-10.887 6.869-6.429 0-12.896-4.815-12.896-13.627 0-8.81 6.467-13.627 12.896-13.627 4.31 0 8.62 2.202 10.887 6.869.074.112 0 .297-.112.374l-3.42 2.202c-.148.113-.373.039-.447-.148-1.597-3.062-4.384-4.554-7.097-4.554-3.792 0-7.656 3.21-7.656 8.884zm20.697 7.281c0 5.712 4.905 7.766 9.142 5.04l2.6-1.679c.26-.187.483-.038.483.224v1.904c0 .15.148.298.296.298h4.236c.148 0 .297-.149.297-.298v-18.07a.32.32 0 00-.297-.297h-4.236c-.148 0-.296.148-.296.297v10.079c0 3.21-2.006 4.74-3.938 4.74-1.784 0-3.456-.933-3.456-3.77v-11.05c0-.149-.148-.297-.296-.297h-4.236c-.148 0-.296.148-.296.297v12.581h-.003zm20.698 5.787h4.236c.148 0 .296-.15.296-.298V8.7c0-.149-.148-.298-.296-.298H95.44c-.148 0-.296.15-.296.298v25.536c0 .149.148.298.296.298zm21.33-15.942v-2.426a.32.32 0 01.297-.297h4.236c.148 0 .296.148.296.297v25.537c0 .148-.148.297-.296.297h-4.236c-.148 0-.297-.149-.297-.297v-9.259c0-.297-.334-.41-.556-.187-1.524 1.792-3.642 2.687-5.461 2.687-4.089 0-8.175-3.248-8.175-9.668 0-5.674 3.79-9.817 7.692-9.817.929 0 2.118.297 3.234 1.194l2.786 2.167c.22.146.48.033.48-.228zm-9.177 6.645c0 2.913 2.044 5.302 4.719 5.302 2.156 0 4.458-2.315 4.458-5.486 0-3.546-2.414-5.377-4.422-5.377-2.376 0-4.755 1.79-4.755 5.561zm19.434-11.722c1.671 0 2.973-1.27 2.973-3.061 0-1.718-1.302-2.987-2.973-2.987-1.746 0-3.086 1.269-3.086 2.987 0 1.717 1.34 3.061 3.086 3.061zm-2.157 21.019h4.237c.148 0 .296-.149.296-.298v-18.07c0-.149-.148-.298-.296-.298h-4.237c-.148 0-.296.15-.296.298v18.068c0 .151.148.3.296.3z" fill="#fff"/></svg>